<mxfile host="app.diagrams.net" modified="2024-03-21T06:11:40.687Z" agent="Mozilla/5.0 (Macintosh; Intel Mac OS X 10_15_7) AppleWebKit/537.36 (KHTML, like Gecko) Chrome/122.0.0.0 Safari/537.36" etag="kSWtZWyxlEaEtb7YHeww" version="24.0.4" type="github">
  <diagram name="Page-1" id="8ij7DewUUmdn86nDwOTD">
    <mxGraphModel dx="954" dy="606" grid="1" gridSize="10" guides="1" tooltips="1" connect="1" arrows="1" fold="1" page="1" pageScale="1" pageWidth="850" pageHeight="1100" math="0" shadow="0">
      <root>
        <mxCell id="0" />
        <mxCell id="1" parent="0" />
        <mxCell id="tPCU7xJqmU0dDSbp3RQW-2" value="" style="rounded=1;whiteSpace=wrap;html=1;fillColor=#f8cecc;strokeColor=#b85450;" vertex="1" parent="1">
          <mxGeometry x="50" y="190" width="330" height="300" as="geometry" />
        </mxCell>
        <mxCell id="tPCU7xJqmU0dDSbp3RQW-3" value="" style="rounded=1;whiteSpace=wrap;html=1;fillColor=#d5e8d4;strokeColor=#82b366;" vertex="1" parent="1">
          <mxGeometry x="460" y="190" width="330" height="300" as="geometry" />
        </mxCell>
        <mxCell id="tPCU7xJqmU0dDSbp3RQW-4" value="FLINK L0 :&amp;nbsp; 双活&amp;nbsp;" style="rounded=1;whiteSpace=wrap;html=1;" vertex="1" parent="1">
          <mxGeometry x="80" y="230" width="280" height="60" as="geometry" />
        </mxCell>
        <mxCell id="tPCU7xJqmU0dDSbp3RQW-5" value="FLINK L2 ：独立队列" style="rounded=1;whiteSpace=wrap;html=1;" vertex="1" parent="1">
          <mxGeometry x="80" y="320" width="130" height="60" as="geometry" />
        </mxCell>
        <mxCell id="tPCU7xJqmU0dDSbp3RQW-6" value="FLINK L3：公共队列&amp;nbsp;" style="rounded=1;whiteSpace=wrap;html=1;" vertex="1" parent="1">
          <mxGeometry x="230" y="320" width="130" height="60" as="geometry" />
        </mxCell>
        <mxCell id="tPCU7xJqmU0dDSbp3RQW-7" value="FLINK L0 :&amp;nbsp; 双活&amp;nbsp;" style="rounded=1;whiteSpace=wrap;html=1;" vertex="1" parent="1">
          <mxGeometry x="500" y="230" width="250" height="60" as="geometry" />
        </mxCell>
        <mxCell id="tPCU7xJqmU0dDSbp3RQW-8" value="YS机房" style="text;html=1;align=center;verticalAlign=middle;whiteSpace=wrap;rounded=0;" vertex="1" parent="1">
          <mxGeometry x="160" y="140" width="95" height="40" as="geometry" />
        </mxCell>
        <mxCell id="tPCU7xJqmU0dDSbp3RQW-9" value="PY机房" style="text;html=1;align=center;verticalAlign=middle;whiteSpace=wrap;rounded=0;" vertex="1" parent="1">
          <mxGeometry x="580" y="142.5" width="82.5" height="35" as="geometry" />
        </mxCell>
        <mxCell id="tPCU7xJqmU0dDSbp3RQW-10" value="Dsink 重保任务" style="rounded=1;whiteSpace=wrap;html=1;" vertex="1" parent="1">
          <mxGeometry x="500" y="310" width="250" height="60" as="geometry" />
        </mxCell>
        <mxCell id="tPCU7xJqmU0dDSbp3RQW-11" value="Dsink 普通任务" style="rounded=1;whiteSpace=wrap;html=1;" vertex="1" parent="1">
          <mxGeometry x="75" y="410" width="280" height="60" as="geometry" />
        </mxCell>
      </root>
    </mxGraphModel>
  </diagram>
</mxfile>
